<svg width="30" height="36" viewBox="0 0 30 36" xmlns="http://www.w3.org/2000/svg" xmlns:xlink="http://www.w3.org/1999/xlink"><title>file-pdf-o - FontAwesome</title><desc>Created using Figma</desc><use xlink:href="#a" fill="#007AFF"/><defs><path id="a" fill-rule="evenodd" d="M28.672 7.52c.364.37.677.872.937 1.505.26.633.391 1.214.391 1.742v22.8c0 .527-.182.976-.547 1.346a1.796 1.796 0 0 1-1.328.554H1.875c-.52 0-.964-.185-1.328-.554A1.845 1.845 0 0 1 0 33.567V1.9C0 1.372.182.924.547.554A1.79 1.79 0 0 1 1.875 0h17.5c.52 0 1.094.132 1.719.396s1.12.58 1.484.95l6.094 6.175zm-9.593-5.762v9.308h9.186c-.163-.479-.342-.817-.538-1.015l-7.646-7.749c-.196-.198-.53-.38-1.002-.544zm9.133 32.041V12.377h-8.588a1.9 1.9 0 0 1-1.404-.586 1.95 1.95 0 0 1-.578-1.422V1.666H1.787v32.133h26.425zm-10.75-12.603c.43.343.976.713 1.64 1.109.769-.093 1.53-.139 2.286-.139 1.914 0 3.066.323 3.457.97.208.29.221.633.039 1.03 0 .012-.007.026-.02.039l-.039.04v.02c-.078.5-.54.751-1.387.751-.625 0-1.373-.132-2.246-.396a14.135 14.135 0 0 1-2.539-1.049c-2.877.317-5.43.865-7.656 1.643C9.004 28.671 7.428 30.4 6.269 30.4c-.195 0-.377-.047-.546-.14l-.47-.237a2.117 2.117 0 0 0-.116-.099c-.13-.131-.17-.369-.118-.712.118-.528.482-1.131 1.094-1.811.612-.68 1.471-1.316 2.578-1.91.183-.119.332-.079.45.119.026.026.039.053.039.08a48.623 48.623 0 0 0 2.09-3.9c.885-1.794 1.562-3.523 2.03-5.185a16.194 16.194 0 0 1-.595-3.157c-.085-1.023-.042-1.864.127-2.524.143-.527.417-.791.82-.791h.43c.3 0 .527.099.683.297.235.277.293.725.176 1.345a.432.432 0 0 1-.078.159.52.52 0 0 1 .02.158v.594c-.026 1.623-.117 2.89-.274 3.8.716 2.164 1.667 3.734 2.852 4.71zM6.21 29.332c.677-.317 1.569-1.359 2.676-3.127a11.2 11.2 0 0 0-1.71 1.663c-.475.58-.797 1.068-.966 1.464zm7.774-18.21c-.196.554-.209 1.425-.04 2.613l.137-.871c0-.04.046-.324.137-.851a.447.447 0 0 1 .078-.159c-.013-.013-.02-.026-.02-.04a.152.152 0 0 1-.019-.059c-.013-.29-.098-.527-.254-.712 0 .013-.006.026-.02.04v.04zm-2.422 13.084a28.361 28.361 0 0 1 5.546-1.603 2.95 2.95 0 0 1-.254-.188 3.495 3.495 0 0 1-.312-.268c-.99-.884-1.816-2.045-2.48-3.483-.352 1.135-.892 2.434-1.622 3.899-.39.739-.683 1.287-.879 1.643zm12.617-.317c-.313-.317-1.224-.475-2.735-.475.99.37 1.797.554 2.422.554.182 0 .3-.006.352-.02 0-.013-.013-.032-.04-.059z"/></defs></svg>