<svg width="32" height="34" viewBox="0 0 32 34" xmlns="http://www.w3.org/2000/svg" xmlns:xlink="http://www.w3.org/1999/xlink"><title>Stroke 79</title><desc>Created using Figma</desc><use xlink:href="#a" fill="#FFF"/><defs><path id="a" fill-rule="evenodd" d="M18.598.926a4.11 4.11 0 0 0-5.196 0L.644 11.324A1.75 1.75 0 0 0 0 12.683v19.566C0 33.216.78 34 1.745 34h8.553c.964 0 1.745-.784 1.745-1.751V19.855c0-.086.069-.156.156-.156H19.8c.087 0 .156.07.156.156V32.25c0 .967.781 1.751 1.745 1.751h8.553A1.749 1.749 0 0 0 32 32.249V12.683a1.76 1.76 0 0 0-.645-1.36L18.598.926zM1.646 12.562L14.403 2.164a2.527 2.527 0 0 1 3.193 0l12.758 10.399a.155.155 0 0 1 .057.12V32.25c0 .086-.07.155-.156.155h-8.553a.155.155 0 0 1-.156-.155V19.855c0-.966-.78-1.75-1.745-1.75H12.2c-.965 0-1.745.784-1.745 1.75V32.25c0 .086-.07.155-.156.155H1.745a.155.155 0 0 1-.156-.155V12.683a.15.15 0 0 1 .057-.12z"/></defs></svg>