<svg width="29" height="33" viewBox="0 0 29 33" xmlns="http://www.w3.org/2000/svg" xmlns:xlink="http://www.w3.org/1999/xlink"><title>ico_farmer</title><desc>Created using Figma</desc><use xlink:href="#a" transform="translate(.18 9.36)" fill="#007AFF"/><use xlink:href="#b" transform="translate(3.28 9.1)" fill="#007AFF"/><g transform="translate(-7527 -9939)"><mask id="d"><use xlink:href="#c" transform="translate(7532.75 9939.04)" fill="#FFF"/></mask><g mask="url(#d)"><use xlink:href="#e" transform="translate(7532.75 9939.04)" fill="#007AFF"/></g></g><use xlink:href="#f" transform="translate(6.74 16.98)" fill="#007AFF"/><defs><path id="a" fill-rule="evenodd" d="M13.945 23.259c-4.566 0-8.944-.463-13.01-1.376a.867.867 0 0 1-.658-.66A11.666 11.666 0 0 1 0 18.7c0-4.88 3.115-9.321 7.877-11.417A7.867 7.867 0 0 1 6.083 2.28c0-.533.054-1.067.16-1.586a.868.868 0 1 1 1.7.347 6.133 6.133 0 0 0 2.04 5.913.87.87 0 0 1-.29 1.487C4.933 10.028 1.735 14.15 1.735 18.7c0 .537.044 1.076.131 1.608 3.787.805 7.847 1.213 12.08 1.213 4.231 0 8.291-.408 12.077-1.213a9.927 9.927 0 0 0 .132-1.608c0-4.55-3.199-8.672-7.959-10.258a.868.868 0 1 1-.288-1.486 6.133 6.133 0 0 0 2.04-5.913.869.869 0 0 1 1.7-.347 7.86 7.86 0 0 1-1.635 6.587C24.776 9.379 27.89 13.82 27.89 18.7c0 .844-.093 1.693-.277 2.523a.867.867 0 0 1-.658.66c-4.066.913-8.444 1.376-13.01 1.376z"/><path id="b" fill-rule="evenodd" d="M20.823 1.738H.867A.868.868 0 0 1 .867 0h19.956a.869.869 0 0 1 0 1.738z"/><path id="c" fill-rule="evenodd" d="M0 0h16.76v10.675H0V0z"/><path id="e" fill-rule="evenodd" d="M.999 10.675a.869.869 0 0 1-.852-.706A8.455 8.455 0 0 1 0 8.394C0 3.765 3.76 0 8.38 0c4.62 0 8.38 3.765 8.38 8.394 0 .521-.048 1.042-.141 1.547a.87.87 0 0 1-1.011.695.87.87 0 0 1-.695-1.012 6.74 6.74 0 0 0 .112-1.23c0-3.67-2.981-6.656-6.645-6.656-3.664 0-6.645 2.986-6.645 6.656 0 .423.04.842.117 1.248a.87.87 0 0 1-.853 1.033z"/><path id="f" fill-rule="evenodd" d="M11.08 10.086H3.684A3.692 3.692 0 0 1 0 6.396V.986a.868.868 0 1 1 1.735 0v5.408c0 1.077.874 1.954 1.949 1.954h7.396a1.954 1.954 0 0 0 1.949-1.954V.87a.869.869 0 1 1 1.735 0v5.526a3.692 3.692 0 0 1-3.684 3.691z"/></defs></svg>