<svg width="14" height="14" viewBox="0 0 14 14" xmlns="http://www.w3.org/2000/svg"><title>globe - simple-line-icons</title><path d="M13.64 7.068c0 .904-.166 1.757-.499 2.56a6.786 6.786 0 0 1-1.369 2.113 7.02 7.02 0 0 1-2.04 1.476 6.599 6.599 0 0 1-2.613.651.901.901 0 0 1-.113.007H6.82a6.6 6.6 0 0 1-2.652-.538A6.923 6.923 0 0 1 2 11.874a6.944 6.944 0 0 1-1.463-2.16A6.553 6.553 0 0 1 0 7.068c0-.94.18-1.821.538-2.645a6.944 6.944 0 0 1 1.463-2.16A6.923 6.923 0 0 1 4.168.8 6.6 6.6 0 0 1 6.82.262h.186c.036 0 .073.002.113.006A6.599 6.599 0 0 1 9.731.92a7.02 7.02 0 0 1 2.041 1.476 6.786 6.786 0 0 1 1.37 2.114c.332.802.498 1.655.498 2.56zm-1.263 2.194a5.928 5.928 0 0 0 .412-2.194c0-.407-.04-.804-.12-1.19a6.184 6.184 0 0 0-.332-1.096l.16.438c-.027.01-.193.054-.499.133-.306.08-.787.16-1.442.24.026.239.048.48.066.724a11.052 11.052 0 0 1-.013 1.695c-.027.31-.058.612-.093.904.514.062.921.127 1.223.193.301.066.514.117.638.153zM3.802 7.068c0 .31.013.612.04.904.027.293.062.58.106.864.346-.026.72-.048 1.124-.066.403-.018.84-.031 1.31-.04V5.78a31.561 31.561 0 0 1-2.487-.093c-.026.221-.049.447-.066.678-.018.23-.027.465-.027.704zm3.43-5.902V4.94c.46-.009.884-.022 1.27-.04.385-.017.742-.04 1.07-.066a9.873 9.873 0 0 0-.392-1.336 5.878 5.878 0 0 0-.539-1.097 3.781 3.781 0 0 0-.664-.798 2.034 2.034 0 0 0-.745-.438zm-.85.013a1.99 1.99 0 0 0-.745.445c-.24.217-.459.483-.658.798-.2.315-.38.678-.539 1.09a9.44 9.44 0 0 0-.399 1.323c.328.027.687.049 1.077.066.39.018.811.031 1.263.04V1.18zm0 8.402c-.435.009-.838.02-1.21.033a21.01 21.01 0 0 0-1.037.06c.106.425.239.822.398 1.19.16.368.337.693.532.977.195.284.403.52.625.711.222.19.452.326.691.406V9.58zm.85 3.39c.24-.07.472-.202.698-.392.226-.19.437-.428.631-.711.195-.284.37-.612.526-.984.155-.372.285-.776.392-1.21-.31-.027-.654-.047-1.03-.06a82.12 82.12 0 0 0-1.217-.033v3.39zm0-4.24c.47.008.906.021 1.31.039.403.018.773.04 1.11.066.044-.283.08-.571.106-.864a9.984 9.984 0 0 0 .013-1.608c-.017-.23-.04-.461-.066-.692-.337.036-.711.062-1.124.08a31.56 31.56 0 0 1-1.349.027V8.73zm4.946-4.295A6.032 6.032 0 0 0 9.2 1.604c.274.39.518.853.73 1.39.214.536.382 1.123.506 1.761a11.43 11.43 0 0 0 1.742-.319zM4.786 1.471c-.372.133-.722.3-1.05.499-.328.2-.634.428-.918.685a6.388 6.388 0 0 0-.777.844 5.693 5.693 0 0 0-.605.977c.115.035.319.08.611.133.293.053.683.106 1.17.16a8.21 8.21 0 0 1 .638-1.862 6.688 6.688 0 0 1 .93-1.436zM1.13 5.274a6.323 6.323 0 0 0-.206.877 6.085 6.085 0 0 0 .027 2.027c.066.36.166.703.299 1.03l.664-.126c.31-.057.714-.113 1.21-.166a9.667 9.667 0 0 1-.12-.904c-.026-.31-.04-.625-.04-.944 0-.248.007-.496.02-.744a7.28 7.28 0 0 1 .074-.718 14.268 14.268 0 0 1-1.336-.193 7.448 7.448 0 0 1-.592-.14zm.492 4.72a6.163 6.163 0 0 0 2.2 2.227c.306.18.627.329.964.444a5.885 5.885 0 0 1-.858-1.276A8.317 8.317 0 0 1 3.31 9.74a15.5 15.5 0 0 0-1.037.14c-.274.049-.492.086-.651.113zM9.2 12.531a6.05 6.05 0 0 0 1.595-1.023 5.833 5.833 0 0 0 1.196-1.476 8.398 8.398 0 0 0-.598-.126c-.266-.05-.611-.1-1.037-.153a8.859 8.859 0 0 1-.485 1.542c-.2.47-.423.882-.671 1.236z" fill="#FFF" fill-rule="evenodd"/></svg>