<svg width="79" height="79" viewBox="0 0 79 79" xmlns="http://www.w3.org/2000/svg"><title>ico_no</title><g style="mix-blend-mode:screen" fill="#007AFF"><path d="M74.56 39.439c0-19.493-15.799-35.295-35.288-35.295-19.49 0-35.288 15.802-35.288 35.295 0 19.493 15.799 35.295 35.288 35.295 19.49 0 35.288-15.802 35.288-35.295zm3.65 0c0 21.51-17.433 38.947-38.938 38.947C17.767 78.386.334 60.949.334 39.439S17.767.492 39.272.492c21.505 0 38.938 17.437 38.938 38.947z"/><path d="M26.67 54.627l27.786-27.794-2.58-2.583-27.787 27.794z"/><path d="M54.455 52.044L26.67 24.25l-2.58 2.583 27.786 27.794z"/></g></svg>