<svg width="18" height="17" viewBox="0 0 18 17" xmlns="http://www.w3.org/2000/svg" xmlns:xlink="http://www.w3.org/1999/xlink"><title>linkedin - FontAwesome</title><desc>Created using Figma</desc><use xlink:href="#a" transform="translate(0 .51)" fill="#007AFF"/><defs><path id="a" fill-rule="evenodd" d="M3.895 5.323v11.06H.212V5.324h3.683zm.234-3.415c.008.544-.18.998-.563 1.362-.383.365-.887.547-1.512.547H2.03c-.61 0-1.1-.182-1.473-.547C.186 2.905 0 2.452 0 1.908 0 1.358.192.902.575.541.958.181 1.458 0 2.075 0c.618 0 1.113.18 1.485.541.372.361.562.817.57 1.367zM9.6 6.896c.141-.224.286-.42.435-.59.156-.178.366-.372.63-.58a2.9 2.9 0 0 1 .972-.486 4.432 4.432 0 0 1 1.277-.173c1.273 0 2.296.423 3.07 1.267.773.845 1.16 2.082 1.16 3.711v6.34h-3.672v-5.916c0-.781-.15-1.393-.452-1.836-.3-.442-.772-.664-1.411-.664-.47 0-.862.129-1.178.385a2.374 2.374 0 0 0-.709.954c-.081.224-.122.525-.122.905v6.171H5.927c.015-2.968.022-5.375.022-7.22 0-1.846-.004-2.947-.011-3.304l-.011-.536h3.672v1.572z"/></defs></svg>