<svg width="39" height="35" viewBox="0 0 39 35" xmlns="http://www.w3.org/2000/svg" xmlns:xlink="http://www.w3.org/1999/xlink"><title>Fill 1</title><desc>Created using Figma</desc><use xlink:href="#a" fill="#007AFF"/><defs><path id="a" fill-rule="evenodd" d="M28.23 32.72c-4.73 0-8.578-3.849-8.578-8.58 0-4.73 3.849-8.578 8.579-8.578s8.578 3.848 8.578 8.578c0 4.731-3.848 8.58-8.578 8.58zm-17.205-6.862a5.93 5.93 0 0 0-5.09-2.902c-.27 0-.535.025-.795.06v-7.981h12.249c.473 0 .89-.317 1.015-.773L21.75 2.105h10.342v12.086c-1.2-.468-2.5-.734-3.862-.734-5.891 0-10.684 4.792-10.684 10.683 0 .586.06 1.157.151 1.718h-6.673zm-5.09 6.861a3.834 3.834 0 0 1-3.83-3.829 3.833 3.833 0 0 1 3.83-3.829 3.833 3.833 0 0 1 3.828 3.83 3.833 3.833 0 0 1-3.828 3.828zm28.264-17.436V1.053C34.199.472 33.727 0 33.146 0H20.95c-.474 0-.889.316-1.015.773L16.587 12.93h-4.586V7.662a1.052 1.052 0 1 0-2.106 0v5.268H4.087c-.581 0-1.052.471-1.052 1.052v9.736A5.935 5.935 0 0 0 0 28.89a5.941 5.941 0 0 0 5.935 5.935 5.94 5.94 0 0 0 5.933-5.935c0-.316-.032-.624-.08-.926h6.479c1.543 4.006 5.421 6.86 9.964 6.86 5.891 0 10.684-4.792 10.684-10.683 0-3.683-1.873-6.936-4.716-8.858z"/></defs></svg>