<svg id="Layer_1" data-name="Layer 1" xmlns="http://www.w3.org/2000/svg" viewBox="0 0 389.56 102.35"><defs><style>.cls-1,.cls-2{fill:#red}.cls-2{fill-rule:evenodd}</style></defs><title>Netafim-Logo-White</title><path class="cls-1" d="M106.75 32.34L96.41 5.54H80.24l-7.32 51.45h16.09l2.38-16.72 1.31-9.28 10.55 26h16.1l7.32-51.45h-16.09l-2.19 15.41-1.64 11.39zm17.83 24.65h31.15l2-14.06h-14.2l.73-4.98h12.96l1.91-13.36h-12.96l.68-5h14.19l2-14.05H131.9l-7.32 51.45zm120.35 0h16.96l2.69-19.05h13.02l1.88-13.37H266.5l.71-4.98h14.21l2-14.05h-31.16l-7.33 51.45zm35.96 0h16.93l7.32-51.45h-16.93l-7.32 51.45zm52.36-51.45h-17.31l-14.82 51.45h16.27l6.88-26.03 3.14 26.03h11.3l9.95-26.04v26.04h15.13l-.01-51.45h-17.74l-9.74 25.45-3.05-25.45zm54.19 1.86v7.84h2.12V5.53h-3.41L384 11.28l-2.19-5.74h-3.41v9.7h2.11V7.4l2.86 7.84h1.25zm-10.26-1.87h-8.24v1.88h3v7.83h2.33V7.41h3zM224.22 57h17l-6.89-51.47h-18.61L190 57h17.8l2.54-6.36h13.57zm-2.34-35.22h.59l.77 15.48h-7.55zm-56.46-1.95l9.31-.22-5.31 37.37h16.82l5.32-37.38 9.24.23 2.04-14.3h-35.38l-2.04 14.3z"/><path class="cls-2" d="M47.28 0l-6.82 15.68c-1.21 2.84-2.42 5.68-3.65 8.51-1.79 4.1-3.27 8.2-2.37 12.74a14 14 0 0 0 4.7 7.91c3.21 2.93 8.13 2.91 8.14 2.91s4.94 0 8.15-2.91a14 14 0 0 0 4.7-7.91c.9-4.53-.59-8.63-2.37-12.74-1.24-2.83-2.44-5.67-3.65-8.51L47.28 0zM20.39 28.15L9.78 52.51C7.9 56.92 6 61.34 4.11 65.73 1.33 72.12-1 78.48.42 85.54c.94 4.74 3.27 8.6 7.31 12.29 5 4.55 12.63 4.51 12.66 4.51s7.68 0 12.67-4.51c4-3.69 6.37-7.55 7.31-12.29 1.39-7.06-.91-13.43-3.69-19.81Q33.8 59.14 31 52.51z"/></svg>