<svg width="38" height="38" viewBox="0 0 38 38" xmlns="http://www.w3.org/2000/svg" xmlns:xlink="http://www.w3.org/1999/xlink"><title>Stroke 347</title><desc>Created using Figma</desc><use xlink:href="#a" fill="#007AFF"/><defs><path id="a" fill-rule="evenodd" d="M18.132 3.36a11.396 11.396 0 0 0-3.266 9.506c.191 1.534-.402 3.128-1.578 4.304L1.496 28.958a5.11 5.11 0 0 0 0 7.224 5.105 5.105 0 0 0 7.22 0l11.787-11.795c1.175-1.176 2.769-1.77 4.303-1.58 3.48.435 6.982-.734 9.506-3.268 3.41-3.4 4.294-8.53 2.32-12.84a.882.882 0 0 0-1.426-.257l-6.467 6.47a2.814 2.814 0 0 1-4.083-.112c-.987-1.097-.87-2.892.252-4.016l6.32-6.32a.884.884 0 0 0-.257-1.428A11.412 11.412 0 0 0 18.132 3.36zm-1.514 9.288a9.628 9.628 0 0 1 2.762-8.039 9.647 9.647 0 0 1 9.635-2.428L23.66 7.535c-1.767 1.768-1.953 4.628-.315 6.447a4.578 4.578 0 0 0 6.642.178l5.503-5.504a9.65 9.65 0 0 1-2.426 9.634 9.62 9.62 0 0 1-8.04 2.765c-2.093-.26-4.22.533-5.77 2.083L7.469 34.933a3.34 3.34 0 1 1-4.724-4.725l11.792-11.79c1.55-1.549 2.343-3.678 2.082-5.77z"/></defs></svg>