<svg width="35" height="46" viewBox="0 0 35 46" xmlns="http://www.w3.org/2000/svg" xmlns:xlink="http://www.w3.org/1999/xlink"><title>Triangle 2</title><desc>Created using Figma</desc><g opacity=".9" transform="translate(5146 -4930)"><use xlink:href="#a" transform="translate(-5143 4929.54)" fill="#FFF"/><mask id="b"><path fill="#fff" transform="translate(-5143 4929.54)" d="M-3 1h35v45H-3z"/><use xlink:href="#a" transform="translate(-5143 4929.54)"/></mask><g mask="url(#b)"><use xlink:href="#c" transform="translate(-5143 4929.54)" fill="#007AFF"/></g></g><defs><path id="a" fill-rule="evenodd" d="M26.785 20.27c2.115 1.6 2.115 4.779 0 6.38L6.414 42.064C3.779 44.06 0 42.18 0 38.875V8.044C0 4.74 3.779 2.86 6.414 4.853L26.785 20.27z"/><path id="c" d="M24.975 24.257L4.603 39.673l3.621 4.785L28.596 29.04l-3.621-4.784zM3 38.876V8.043h-6v30.833h6zm1.603-31.63l20.372 15.416 3.62-4.784L8.226 2.46 4.602 7.246zM28.596 29.04c3.7-2.8 3.7-8.363 0-11.163l-3.621 4.784a1 1 0 0 1 0 1.595l3.62 4.784zM4.603 39.673A1 1 0 0 1 3 38.876h-6c0 5.782 6.613 9.07 11.224 5.582l-3.62-4.785zM3 8.043a1 1 0 0 1 1.603-.797L8.224 2.46C3.614-1.028-3 2.261-3 8.043h6z"/></defs></svg>