<svg width="19" height="15" viewBox="0 0 19 15" xmlns="http://www.w3.org/2000/svg" xmlns:xlink="http://www.w3.org/1999/xlink"><title>twitter - FontAwesome</title><desc>Created using Figma</desc><use xlink:href="#a" transform="translate(.49 .71)" fill="#007AFF"/><defs><path id="a" fill-rule="evenodd" d="M17.59 1.696a7.553 7.553 0 0 1-1.81 1.864 10.242 10.242 0 0 1-.413 3.365A10.463 10.463 0 0 1 14.08 9.7a10.901 10.901 0 0 1-2.059 2.349c-.796.68-1.756 1.224-2.88 1.63a10.538 10.538 0 0 1-3.604.608c-2.017 0-3.862-.54-5.536-1.619.26.03.55.045.87.045 1.675 0 3.166-.513 4.476-1.54a3.515 3.515 0 0 1-2.098-.72 3.526 3.526 0 0 1-1.273-1.78c.246.037.473.056.681.056.32 0 .636-.041.949-.123a3.547 3.547 0 0 1-2.07-1.245 3.483 3.483 0 0 1-.82-2.293v-.045a3.562 3.562 0 0 0 1.629.458 3.6 3.6 0 0 1-1.172-1.284 3.512 3.512 0 0 1-.435-1.718c0-.655.163-1.261.49-1.82A10.219 10.219 0 0 0 4.516 3.32 10.044 10.044 0 0 0 8.66 4.43a4.004 4.004 0 0 1-.09-.825c0-.997.352-1.847 1.055-2.55A3.474 3.474 0 0 1 12.176 0c1.042 0 1.92.38 2.634 1.138a7.068 7.068 0 0 0 2.288-.87 3.5 3.5 0 0 1-1.585 1.986 7.183 7.183 0 0 0 2.076-.558z"/></defs></svg>