<svg width="18" height="19" viewBox="0 0 18 19" xmlns="http://www.w3.org/2000/svg" xmlns:xlink="http://www.w3.org/1999/xlink"><title>ion-social-whatsapp - Ionicons</title><desc>Created using Figma</desc><use xlink:href="#a" transform="translate(0 .75)" fill="#007AFF"/><defs><path id="a" fill-rule="evenodd" d="M8.906 0c2.37 0 4.395.827 6.074 2.48 1.68 1.654 2.52 3.666 2.52 6.036 0 2.37-.84 4.381-2.52 6.035-1.68 1.653-3.704 2.48-6.074 2.48-1.432 0-2.812-.351-4.14-1.054L0 17.5l1.563-4.57C.729 11.55.313 10.078.313 8.516c0-2.37.84-4.382 2.519-6.036C4.512.827 6.536 0 8.906 0zm4.258 11.758c.208-.521.273-.86.195-1.016-.026-.052-.17-.143-.43-.273a36.663 36.663 0 0 1-.703-.39c-.416-.235-.664-.365-.742-.392-.208-.078-.377-.039-.508.118-.052.052-.176.188-.37.41a12.56 12.56 0 0 1-.372.41c-.104.13-.26.143-.469.04a7.119 7.119 0 0 1-1.718-1.173c-.521-.495-.912-1.002-1.172-1.523-.078-.157-.04-.313.117-.469l.351-.352c.079-.078.157-.195.235-.351.052-.104.052-.234 0-.39 0-.027-.046-.144-.137-.352a10.036 10.036 0 0 1-.273-.703c-.091-.26-.163-.456-.215-.586-.104-.287-.274-.43-.508-.43h-.39c-.209 0-.404.091-.587.273-.546.547-.833 1.146-.859 1.797-.026.755.248 1.51.82 2.266l.118.156a10.795 10.795 0 0 0 .664.977c.156.208.338.416.547.625.208.208.423.416.644.625.221.208.482.403.781.586.3.182.593.338.88.468.937.391 1.6.612 1.991.664.391.053.6.04.625-.039.235-.026.521-.136.86-.332.338-.195.547-.41.625-.644z"/></defs></svg>